<?xml version="1.0" encoding="UTF-8" standalone="no"?>
<!-- Generator: Adobe Illustrator 22.0.1, SVG Export Plug-In . SVG Version: 6.00 Build 0)  -->

<svg
   xmlns:dc="http://purl.org/dc/elements/1.1/"
   xmlns:cc="http://creativecommons.org/ns#"
   xmlns:rdf="http://www.w3.org/1999/02/22-rdf-syntax-ns#"
   xmlns:svg="http://www.w3.org/2000/svg"
   xmlns="http://www.w3.org/2000/svg"
   xmlns:sodipodi="http://sodipodi.sourceforge.net/DTD/sodipodi-0.dtd"
   xmlns:inkscape="http://www.inkscape.org/namespaces/inkscape"
   version="1.1"
   id="Ebene_1"
   x="0px"
   y="0px"
   viewBox="0 0 587.20152 150.3629"
   xml:space="preserve"
   sodipodi:docname="Mindchains_PB.svg"
   inkscape:version="0.92.2 (5c3e80d, 2017-08-06)"
   width="587.20154"
   height="150.3629"><metadata
     id="metadata39"><rdf:RDF><cc:Work
         rdf:about=""><dc:format>image/svg+xml</dc:format><dc:type
           rdf:resource="http://purl.org/dc/dcmitype/StillImage" /><dc:title></dc:title></cc:Work></rdf:RDF></metadata><defs
     id="defs37" /><sodipodi:namedview
     pagecolor="#ffffff"
     bordercolor="#666666"
     borderopacity="1"
     objecttolerance="10"
     gridtolerance="10"
     guidetolerance="10"
     inkscape:pageopacity="0"
     inkscape:pageshadow="2"
     inkscape:window-width="1920"
     inkscape:window-height="1064"
     id="namedview35"
     showgrid="false"
     inkscape:zoom="0.9070855"
     inkscape:cx="510.5731"
     inkscape:cy="-74.417254"
     inkscape:window-x="0"
     inkscape:window-y="16"
     inkscape:window-maximized="0"
     inkscape:current-layer="Ebene_1"
     fit-margin-top="10"
     fit-margin-left="10"
     fit-margin-right="10"
     fit-margin-bottom="10" /><style
     type="text/css"
     id="style2">
	.st0{fill:#B51434;}
	.st1{fill:#58585A;}
	.st2{font-family:'AgbExtLig';}
	.st3{font-size:36px;}
	.st4{letter-spacing:5;}
</style><g
     id="g28"
     transform="translate(-127.5,-192.91995)"><path
       style="fill:#b51434"
       inkscape:connector-curvature="0"
       id="path4"
       d="m 371.7,275.6 -0.4,0.3 c -1.6,1 -3.1,2.2 -4.4,3.6 l -0.3,0.4 c 2.8,4 4.5,9.1 4.8,15.5 0.7,17.5 -7.9,28.3 -19.8,30.2 -2.4,0.4 -4.6,0.6 -7.8,0.7 -0.6,0 -1.3,0 -2.1,0 h -18.6 v -56.8 l 8.6,-0.2 c 1.6,0 3.3,0 4.9,0 1.2,0 2.4,0 3.7,0.1 l 4.9,0.1 c 4.1,0.1 7.3,0.6 10,1.6 l 0.8,-0.9 c 1.2,-1.4 2.6,-2.7 4.1,-3.8 -1.3,-0.5 -2.6,-1 -4,-1.3 -1.1,-0.3 -2.1,-0.4 -3.2,-0.6 -3,-0.6 -4.3,-0.7 -5.4,-0.7 h -30.7 v 67.8 h 28.8 c 0.8,0 1.6,-0.1 4.1,-0.3 16.6,-1.5 27.4,-13 28.2,-32.3 0.4,-9.6 -2,-17.5 -6.2,-23.4 z"
       class="st0" /><path
       style="fill:#b51434"
       inkscape:connector-curvature="0"
       id="path6"
       d="m 137.5,263.4 h 8.7 l 27.9,60.2 28.7,-59.9 h 7.9 v 68.1 h -6.3 v -58.1 l -13.7,28.3 -14.3,29.8 h -5.5 l -9.4,-20.5 -6.8,-14.7 -6.6,-14 -4.2,-8.9 v 58 h -6.3 v -68.3 z"
       class="st0" /><path
       style="fill:#b51434"
       inkscape:connector-curvature="0"
       id="path8"
       d="m 226.1,317 v -14.4 -7.9 c -0.1,-4.7 -0.1,-9.3 -0.1,-14 0,-2.3 0.1,-4.5 0.1,-6.8 l 0.2,-5.3 0.2,-5.1 h 6.3 v 68 H 226 Z"
       class="st0" /><path
       style="fill:#b51434"
       inkscape:connector-curvature="0"
       id="path10"
       d="m 244.6,263.4 h 7.2 l 5.5,7.3 5.6,7.2 12.1,15.3 c 7.5,9.5 10.7,13.5 13.4,16.9 l 4.5,6 4.5,6 v -58.3 h 6.4 v 67.7 h -6.6 l -26.1,-33.1 -13.4,-17.1 -6.6,-8.5 v 58.8 h -6.5 z"
       class="st0" /><path
       style="fill:#58585a"
       inkscape:connector-curvature="0"
       id="path12"
       d="m 426.8,263.5 h 6.5 v 30.7 h 45.9 v -30.6 h 6.7 v 68.1 h -6.7 V 300 h -45.9 v 31.4 h -6.5 z"
       class="st1" /><path
       style="fill:#58585a"
       inkscape:connector-curvature="0"
       id="path14"
       d="m 496,318.7 c 6.9,-16.6 13,-30.7 17.5,-41.1 l 3.1,-6.8 3,-6.6 h 6.6 l 28.2,67.2 h -6.9 l -8.9,-21.3 h -32 l -8.9,21 H 491 c 1.5,-4.2 3.3,-8.2 5,-12.4 z m 40.6,-13.8 -13.8,-33.3 -1.2,2.7 -1.3,2.6 -3.4,8 -8.4,20 z"
       class="st1" /><path
       style="fill:#58585a"
       inkscape:connector-curvature="0"
       id="path16"
       d="m 562.9,317 v -14.4 -7.9 c -0.1,-4.7 -0.1,-9.3 -0.1,-14 0,-2.3 0.1,-4.5 0.1,-6.8 l 0.2,-5.3 0.2,-5.1 h 6.3 v 68 h -6.8 z"
       class="st1" /><path
       style="fill:#58585a"
       inkscape:connector-curvature="0"
       id="path18"
       d="m 581.4,263.4 h 7.2 l 5.5,7.3 5.6,7.2 12.1,15.3 c 7.5,9.5 10.7,13.5 13.4,16.9 l 4.5,6 4.5,6 v -58.3 h 6.4 v 67.7 H 634 l -26.1,-33.1 -13.4,-17.1 -6.6,-8.5 v 58.8 h -6.5 z"
       class="st1" /><path
       style="fill:#58585a"
       inkscape:connector-curvature="0"
       id="path20"
       d="m 656,309.5 c 0.1,1.3 0.5,2.8 1.1,4.6 2.5,8.7 11,14.3 23.6,13.3 6.4,-0.5 10.5,-2.2 13.1,-5 2.5,-2.7 3.8,-5.7 3.8,-8.5 0.1,-4.4 -1.6,-7.5 -5.4,-10 -1.4,-1 -3.2,-1.7 -6.5,-2.5 -0.5,-0.2 -1,-0.3 -1.4,-0.4 l -16.7,-3.5 c -0.8,-0.2 -1.7,-0.5 -3.5,-1.2 -2.4,-0.9 -3.8,-1.6 -5.3,-2.6 -4.7,-3.4 -6.9,-7.9 -6.7,-13.8 0.1,-3.5 1.5,-7.2 4.7,-10.6 3.8,-4.3 10.8,-7.2 21.2,-7.3 5.7,0 11,1.2 14.6,3.3 6,3.3 8.3,6.3 10.7,13.7 0.2,0.7 0.5,1.3 0.6,2 l -6.6,0.4 c -0.2,-0.7 -0.5,-1.2 -0.8,-1.8 -2.4,-5.6 -4.6,-7.9 -9,-9.8 -2.1,-1 -5,-1.5 -8.8,-1.6 -8.9,-0.2 -14.7,2.5 -17.4,6.2 -1.7,2.4 -2.4,4.7 -2.3,6.7 0.1,0.8 0.2,1.4 0.4,2.1 1,3.1 3.1,5.5 7.2,6.9 l 3.3,1.1 c 1.4,0.5 2.5,0.8 3.4,1 l 13.8,2.8 c 0.6,0.1 1.2,0.3 1.7,0.4 11.2,3.2 16,9.1 15.9,17.9 -0.1,4.1 -1.8,8.5 -5.2,12.3 -3.9,4.5 -9.9,7.2 -19.6,7.6 -8.4,0.5 -15.1,-1.3 -19.7,-4.4 -5.7,-3.8 -8.8,-8.5 -10.1,-14.3 l -0.5,-2.2 -0.2,-2.2 z"
       class="st1" /><g
       id="g26"><path
         style="fill:#58585a"
         inkscape:connector-curvature="0"
         id="path22"
         d="m 411,308.7 -0.6,1.4 -0.8,1.8 c -1.1,2.4 -1.8,4 -3.1,5.6 -5.2,7.2 -13.6,10.9 -23.8,9.8 -3.8,-0.3 -7.3,-1.2 -10.4,-2.6 l -0.8,0.8 c -1.3,1.3 -2.6,2.4 -4,3.4 4.2,2.1 9,3.5 14.4,4 15.6,1.4 27.5,-5.6 33,-17.3 0.6,-1.2 1.2,-2.6 1.8,-4.3 0.2,-0.5 0.4,-1.1 0.7,-1.7 z"
         class="st1" /><path
         style="fill:#58585a"
         inkscape:connector-curvature="0"
         id="path24"
         d="m 357.1,319.3 c 1.5,-0.9 2.8,-1.9 4.1,-3.2 l 0.5,-0.5 c -2.8,-4.3 -4.4,-9.7 -4.7,-16.1 -0.9,-16 6.6,-26.4 19.8,-30.5 3.4,-1 6.8,-1.4 10.3,-1.2 12.2,0.8 19.9,7 23.1,17.4 0.2,0.5 0.3,1 0.5,1.3 l 6.3,-0.4 -0.8,-3.1 c -3.7,-13.6 -15.8,-21.8 -32.7,-21 -18.6,1.1 -29.7,11.1 -32.7,29.1 -0.4,2.2 -0.6,4.5 -0.6,6.9 0,8.5 2.2,15.7 6.3,21.4 z"
         class="st1" /></g></g><text
     xml:space="preserve"
     style="font-style:normal;font-variant:normal;font-weight:normal;font-stretch:normal;font-size:13px;line-height:1.25;font-family:sans-serif;-inkscape-font-specification:'sans-serif, Normal';font-variant-ligatures:normal;font-variant-caps:normal;font-variant-numeric:normal;font-feature-settings:normal;text-align:start;letter-spacing:0px;word-spacing:0px;writing-mode:lr-tb;text-anchor:start;fill:#000000;fill-opacity:1;stroke:none"
     x="119.07619"
     y="41.70998"
     id="text32"><tspan
       sodipodi:role="line"
       id="tspan30"
       x="119.07619"
       y="41.70998"
       style="font-style:normal;font-variant:normal;font-weight:bold;font-stretch:normal;font-size:37.33333206px;font-family:Arcon;-inkscape-font-specification:Arcon">POWERED BY TEAM </tspan></text>
</svg>