<?xml version="1.0" encoding="UTF-8" standalone="no"?>
<!-- Created with Inkscape (http://www.inkscape.org/) -->

<svg
   xmlns:dc="http://purl.org/dc/elements/1.1/"
   xmlns:cc="http://creativecommons.org/ns#"
   xmlns:rdf="http://www.w3.org/1999/02/22-rdf-syntax-ns#"
   xmlns:svg="http://www.w3.org/2000/svg"
   xmlns="http://www.w3.org/2000/svg"
   xmlns:sodipodi="http://sodipodi.sourceforge.net/DTD/sodipodi-0.dtd"
   xmlns:inkscape="http://www.inkscape.org/namespaces/inkscape"
   version="1.1"
   id="svg2"
   xml:space="preserve"
   width="556.8808"
   height="67.390663"
   viewBox="0 0 556.8808 67.390664"
   sodipodi:docname="chainstep.svg"
   inkscape:version="0.92.2 (5c3e80d, 2017-08-06)"><metadata
     id="metadata8"><rdf:RDF><cc:Work
         rdf:about=""><dc:format>image/svg+xml</dc:format><dc:type
           rdf:resource="http://purl.org/dc/dcmitype/StillImage" /><dc:title></dc:title></cc:Work></rdf:RDF></metadata><defs
     id="defs6"><clipPath
       clipPathUnits="userSpaceOnUse"
       id="clipPath18"><path
         d="M 0,141.732 H 566.929 V 0 H 0 Z"
         id="path16"
         inkscape:connector-curvature="0" /></clipPath><clipPath
       clipPathUnits="userSpaceOnUse"
       id="clipPath30"><path
         d="M 0,141.732 H 566.929 V 0 H 0 Z"
         id="path28"
         inkscape:connector-curvature="0" /></clipPath><clipPath
       clipPathUnits="userSpaceOnUse"
       id="clipPath40"><path
         d="M 0,141.732 H 566.929 V 0 H 0 Z"
         id="path38"
         inkscape:connector-curvature="0" /></clipPath></defs><sodipodi:namedview
     pagecolor="#ffffff"
     bordercolor="#666666"
     borderopacity="1"
     objecttolerance="10"
     gridtolerance="10"
     guidetolerance="10"
     inkscape:pageopacity="0"
     inkscape:pageshadow="2"
     inkscape:window-width="1246"
     inkscape:window-height="1062"
     id="namedview4"
     showgrid="false"
     inkscape:zoom="0.3743855"
     inkscape:cx="81.257299"
     inkscape:cy="-62.671182"
     inkscape:window-x="0"
     inkscape:window-y="16"
     inkscape:window-maximized="0"
     inkscape:current-layer="g10"
     fit-margin-top="5"
     fit-margin-left="5"
     fit-margin-right="5"
     fit-margin-bottom="5" /><g
     id="g10"
     inkscape:groupmode="layer"
     inkscape:label="ChainStep_cmyk"
     transform="matrix(1.3333333,0,0,-1.3333333,-101.77546,127.444)"><g
       id="g12"><g
         id="g14"
         clip-path="url(#clipPath18)"><g
           id="g20"
           transform="translate(84.5386,70.4878)"><path
             d="m 0,0 c 0,9.207 7.741,16.947 17.416,16.947 5.337,0 10.028,-2.345 13.195,-6.04 h 5.336 C 32.135,17.006 25.274,21.228 17.416,21.228 5.395,21.228 -4.457,11.494 -4.457,0 c 0,-11.963 9.852,-21.697 21.873,-21.697 7.917,0 14.837,4.222 18.648,10.555 H 30.728 C 27.62,-15.012 22.811,-17.417 17.416,-17.417 7.741,-17.417 0,-9.676 0,0"
             style="fill:#102d5d;fill-opacity:1;fill-rule:nonzero;stroke:none"
             id="path22"
             inkscape:connector-curvature="0" /></g></g></g><g
       id="g24"><g
         id="g26"
         clip-path="url(#clipPath30)"><path
           d="m 427.324,53.271 h -29.253 v -3.997 h 29.253 z m -98.637,27.361 c 0,3.636 2.99,6.92 7.564,6.92 3.167,0 5.982,-2.17 6.861,-4.926 h 4.691 c -0.938,5.395 -5.688,9.207 -11.552,9.207 -7.213,0 -12.021,-4.867 -12.021,-11.201 0,-6.333 4.222,-9.265 12.021,-11.669 6.627,-2.053 9.148,-4.164 9.148,-8.034 0,-4.866 -4.045,-7.858 -9.148,-7.858 -4.515,0 -8.21,2.873 -9.03,6.92 h -4.457 c 0.821,-6.509 6.509,-11.201 13.487,-11.201 7.565,0 13.605,4.81 13.605,12.139 0,7.33 -5.806,10.379 -13.605,12.842 -5.043,1.584 -7.564,3.226 -7.564,6.861"
           style="fill:#4487ab;fill-opacity:1;fill-rule:nonzero;stroke:none"
           id="path32"
           inkscape:connector-curvature="0" /></g></g><g
       id="g34"><g
         id="g36"
         clip-path="url(#clipPath40)"><g
           id="g42"
           transform="translate(490.2422,79.7646)"><path
             d="m 0,0 c 0,6.863 -4.937,11.456 -12.234,11.456 h -12.555 v -41.948 h 3.917 v 19.008 h 8.638 C -4.883,-11.484 0,-6.863 0,0 m -4.078,0.255 c 0,-4.696 -3.274,-7.73 -8.156,-7.73 h -8.638 V 7.504 h 8.638 c 4.937,0 8.156,-2.553 8.156,-7.249"
             style="fill:#4487ab;fill-opacity:1;fill-rule:nonzero;stroke:none"
             id="path44"
             inkscape:connector-curvature="0" /></g></g></g><g
       id="g46"
       transform="translate(224.1318,49.2637)"><path
         d="m 0,0 h 4.633 l -18.824,41.962 h -4.633 L -37.648,0 h 4.633 l 7.506,16.69 1.818,4.115 7.213,15.986 7.154,-15.986 1.818,-4.115 z"
         style="fill:#102d5d;fill-opacity:1;fill-rule:nonzero;stroke:none"
         id="path48"
         inkscape:connector-curvature="0" /></g><g
       id="g50"
       transform="translate(299.8945,49.2734)"><path
         d="M 0,0 H 5.16 V 41.953 H 0.88 V 5.876 l -26.213,36.077 h -5.16 V 0 h 4.281 v 36.077 z"
         style="fill:#102d5d;fill-opacity:1;fill-rule:nonzero;stroke:none"
         id="path52"
         inkscape:connector-curvature="0" /></g><path
       d="m 244.597,49.273 h 4.281 v 41.974 h -4.281 z"
       style="fill:#102d5d;fill-opacity:1;fill-rule:nonzero;stroke:none"
       id="path54"
       inkscape:connector-curvature="0" /><g
       id="g56"
       transform="translate(166.5469,49.2734)"><path
         d="M 0,0 H 4.105 V 41.974 H 0 V 22.967 h -24.336 v 19.007 h -4.281 V 0 h 4.281 V 18.974 H 0 Z"
         style="fill:#102d5d;fill-opacity:1;fill-rule:nonzero;stroke:none"
         id="path58"
         inkscape:connector-curvature="0" /></g><g
       id="g60"
       transform="translate(381.2285,87.3022)"><path
         d="M 0,0 H 14.133 V 3.944 H -18.472 V 0 H -4.281 V -38.029 H 0 Z"
         style="fill:#4487ab;fill-opacity:1;fill-rule:nonzero;stroke:none"
         id="path62"
         inkscape:connector-curvature="0" /></g><path
       d="m 420.747,87.257 h 29.254 v 3.997 h -29.254 z"
       style="fill:#4487ab;fill-opacity:1;fill-rule:nonzero;stroke:none"
       id="path64"
       inkscape:connector-curvature="0" /><path
       d="m 438.662,72.233 h -29.253 v -3.997 h 29.253 z"
       style="fill:#4487ab;fill-opacity:1;fill-rule:nonzero;stroke:none"
       id="path66"
       inkscape:connector-curvature="0" /></g></svg>