<?xml version="1.0" encoding="utf-8"?>
<!-- Generator: Adobe Illustrator 18.0.0, SVG Export Plug-In . SVG Version: 6.00 Build 0)  -->
<!DOCTYPE svg PUBLIC "-//W3C//DTD SVG 1.1//EN" "http://www.w3.org/Graphics/SVG/1.1/DTD/svg11.dtd">
<svg version="1.1" id="Layer_1" xmlns="http://www.w3.org/2000/svg" xmlns:xlink="http://www.w3.org/1999/xlink" x="0px" y="0px"
	 viewBox="0 0 763 901" enable-background="new 0 0 763 901" xml:space="preserve">
<image overflow="visible" width="763" height="901" xlink:href="../map.png" >
</image>
<path fill="none" d="M622,101.7l2.3-1.7l0.5,1l-2,1.5l0.8,0.5l5.8-5.2l1.3,2.7l-2.7,2.2l1.2,1l-2.7,2.2l1.3,2.2l2.5-2.8
	c0,0,3.8,4.2,5.8,8.5c2,4.3,3.7,3.2,3.7,3.2l4,2.3c0,0,3.5,1.8,4.5,4.7c1,2.8,2.8,6.3,5.3,6.3s7.2,0.5,9.2,1.2
	c2,0.7,6.8,2.8,7.8,3.8s2.8,3.7,4,5.2c1.2,1.5,5.3,6.3,6.5,6.3c1.2,0,4.8,1,3.8,5.3s-3.7,1.8-3.2,4.3s1.7,9.2-0.5,10.2
	s-7.5,5.3-6.8,7.3c0.7,2-1.7,3.5-3.7,3.5s-1.2,8.5-1,8s1,4,0.3,5c-0.7,1-6,5.5-8,5.5s-6.5,0.7-6.5,1.3c0,0.7-3.7,4.2-3.5,6
	c0.2,1.8-14.3,1.2-23.3,14.5l0.7,3.7l-11,4.3l-12,12.7c0,0-14.3,22.7-18.3,21.7s-14.7,12-15.7,12s5.3,5,5.3,5s14.3,0.3,13,3.3
	s-0.7,7.3-0.3,12c0.3,4.7,4.3,4.7,4.3,8.3c0,3.7-2.7,14.7-4.7,14.3s-7.3,11.3-9.7,11.3c-2.3,0-3.7-0.3-7-0.3c-3.3,0-16-2.7-16,0
	s-6.3,8.7-6.3,8.7l5.3,7.7l-0.7,19c0,0-2.7,9.7-4.3,9.7c-1.7,0-12,0-12,3.7c0,3.7,3.7,7.7,3.7,7.7l-0.7,6.3c0,0,9.7,1.7,10.7,4.7
	s-3.3,10-3.3,10l3.7,7.3c0,0,2,10.7-5,10.7s-10,0.7-10,0.7l-1,3l-3.3,1l-4.7,1l2.3,3.3l-1.3,3L527,432l-3.3-0.7l-9-2.3l-2.3,4l1.7,3
	l-3,2.7h-4.3v6.3l-1.3,5l-3.7,2.7l-3.3-2l3.7-1.7l2.7,5.7l-4.3,2l-3.3-2.3"/>
</svg>
